<?xml version="1.0" standalone="no"?>
<!DOCTYPE svg PUBLIC "-//W3C//DTD SVG 20010904//EN"
 "http://www.w3.org/TR/2001/REC-SVG-20010904/DTD/svg10.dtd">
<svg version="1.0" xmlns="http://www.w3.org/2000/svg"
 width="600.000000pt" height="600.000000pt" viewBox="0 0 600.000000 600.000000"
 preserveAspectRatio="xMidYMid meet">
<metadata>
Created by potrace 1.11, written by Peter Selinger 2001-2013
</metadata>
<g transform="translate(0.000000,600.000000) scale(0.100000,-0.100000)"
fill="#000000" stroke="none">
<path d="M1389 5973 c-1 -9 -1 -10 -29 -143 -42 -202 -72 -345 -75 -360 -2 -8
-13 -62 -25 -120 -12 -58 -23 -112 -25 -120 -11 -52 -48 -229 -51 -250 -3 -14
-12 -53 -20 -88 -7 -35 -14 -65 -14 -68 0 -2 418 -4 929 -4 l929 0 8 33 c4 17
8 34 9 37 0 3 4 21 8 40 4 19 9 46 12 60 3 14 10 45 15 70 10 49 10 48 41 194
11 56 23 112 25 126 3 14 11 53 19 88 8 34 17 76 20 94 3 17 19 93 35 167 16
75 31 150 34 166 3 17 8 42 12 58 l6 27 -931 0 c-512 0 -931 -3 -932 -7z"/>
<path d="M3510 5976 c0 -2 -11 -57 -25 -122 -14 -66 -27 -128 -29 -139 -2 -11
-14 -67 -26 -125 -12 -58 -24 -114 -26 -125 -2 -11 -9 -45 -16 -75 -6 -30 -12
-57 -13 -60 -4 -17 -18 -89 -22 -110 -2 -14 -17 -86 -33 -160 -16 -74 -31
-146 -34 -160 -2 -14 -7 -37 -11 -52 l-7 -28 856 0 c678 0 856 3 857 13 0 6 2
19 4 27 3 17 23 115 29 145 43 202 58 274 62 295 3 14 14 68 25 120 27 128 90
429 95 460 3 14 9 39 13 57 5 17 6 34 3 37 -6 7 -1702 8 -1702 2z"/>
<path d="M990 4011 c-29 -141 -61 -294 -71 -341 -10 -47 -36 -171 -59 -275
l-40 -190 0 -1591 0 -1591 600 0 c330 0 600 3 600 7 0 3 9 49 20 101 11 52 22
103 24 114 2 11 14 67 26 125 12 58 24 114 26 126 2 11 17 85 34 165 17 79 51
241 76 359 43 210 47 229 58 280 12 53 68 326 72 350 3 14 9 41 14 60 5 19 11
48 14 64 3 16 10 52 16 80 11 57 11 53 39 190 12 54 23 108 25 120 3 11 17 77
31 146 14 69 28 136 31 150 2 14 7 36 11 50 9 36 10 39 21 100 6 30 27 132 47
225 31 147 44 210 71 345 3 14 10 45 15 70 6 25 13 56 15 70 3 14 21 99 40
190 19 91 56 264 81 385 53 259 49 238 62 295 6 25 11 52 11 61 0 15 -78 17
-928 17 l-929 0 -53 -257z"/>
<path d="M3166 4261 c-3 -5 -86 -386 -100 -461 -3 -14 -16 -79 -30 -145 -14
-66 -38 -176 -52 -245 -14 -69 -27 -132 -29 -140 -4 -18 -45 -216 -51 -245 -2
-11 -24 -117 -49 -235 -25 -118 -47 -224 -49 -235 -2 -11 -7 -31 -10 -45 -3
-14 -8 -36 -10 -50 -3 -14 -14 -70 -26 -125 -12 -55 -23 -109 -25 -120 -3 -11
-18 -85 -35 -165 -17 -80 -33 -156 -36 -170 -2 -14 -9 -47 -15 -75 -6 -27 -13
-61 -15 -75 -3 -14 -9 -41 -14 -60 -5 -19 -11 -51 -14 -70 -3 -19 -12 -64 -20
-100 -14 -62 -20 -87 -31 -147 -3 -16 -14 -68 -25 -118 -10 -49 -21 -102 -24
-118 -2 -15 -7 -35 -10 -45 -3 -9 -7 -28 -10 -42 -7 -43 -47 -233 -56 -270 -5
-19 -12 -51 -15 -70 -3 -19 -8 -42 -10 -50 -2 -8 -7 -30 -10 -47 -3 -18 -12
-63 -20 -100 -8 -38 -19 -90 -25 -118 -6 -27 -24 -112 -40 -187 -17 -76 -30
-141 -30 -145 0 -9 1695 -11 1704 -3 4 5 28 110 43 190 2 14 9 45 14 70 6 25
13 56 15 70 4 22 24 118 30 145 1 6 12 55 23 111 12 55 23 109 26 120 70 335
118 562 119 574 2 8 6 29 9 45 4 17 9 39 11 50 12 60 110 524 127 605 11 52
23 105 25 118 2 12 6 32 8 45 2 12 12 56 20 97 9 41 21 95 26 120 5 25 36 176
70 335 33 160 62 299 65 310 2 11 18 88 35 170 18 83 34 159 36 170 2 11 6 31
9 45 18 84 76 364 81 390 3 14 7 32 9 40 2 8 7 30 10 48 5 27 31 157 70 339
l5 21 -850 0 c-468 -1 -852 -3 -854 -7z"/>
</g>
</svg>
